<svg width="25" height="22" viewBox="0 0 25 22" fill="none" xmlns="http://www.w3.org/2000/svg">
<path d="M23.9073 4.49787C23.5271 3.61769 22.979 2.82008 22.2936 2.14969C21.6077 1.47729 20.7989 0.942954 19.9114 0.575722C18.991 0.193413 18.0039 -0.00227384 17.0073 1.99337e-05C15.6092 1.99337e-05 14.2451 0.382876 13.0597 1.10605C12.7761 1.27904 12.5066 1.46905 12.2514 1.67608C11.9962 1.46905 11.7267 1.27904 11.4432 1.10605C10.2577 0.382876 8.89361 1.99337e-05 7.49548 1.99337e-05C6.48871 1.99337e-05 5.51313 0.192866 4.59144 0.575722C3.70094 0.944398 2.89836 1.47472 2.20922 2.14969C1.52291 2.81932 0.974661 3.61712 0.595554 4.49787C0.201354 5.41389 0 6.38662 0 7.38772C0 8.3321 0.192846 9.31618 0.575703 10.3173C0.896168 11.1539 1.3556 12.0217 1.94264 12.898C2.87284 14.2848 4.15186 15.7311 5.74001 17.1973C8.37179 19.6278 10.9781 21.3067 11.0887 21.3747L11.7608 21.8058C12.0586 21.9958 12.4414 21.9958 12.7392 21.8058L13.4113 21.3747C13.5219 21.3038 16.1253 19.6278 18.76 17.1973C20.3481 15.7311 21.6271 14.2848 22.5573 12.898C23.1444 12.0217 23.6066 11.1539 23.9243 10.3173C24.3071 9.31618 24.5 8.3321 24.5 7.38772C24.5028 6.38662 24.3015 5.41389 23.9073 4.49787Z" fill="black"/>
</svg>
