<svg width="28" height="28" viewBox="0 0 28 28" fill="none" xmlns="http://www.w3.org/2000/svg">
<path d="M19.6437 5.25C20.2808 5.24946 20.9116 5.37611 21.4991 5.62253C22.0865 5.86894 22.6189 6.23016 23.065 6.685C23.9841 7.61808 24.4993 8.87526 24.4993 10.185C24.4993 11.4947 23.9841 12.7519 23.065 13.685L14 22.8638L4.93499 13.685C4.01587 12.7519 3.50068 11.4947 3.50068 10.185C3.50068 8.87526 4.01587 7.61808 4.93499 6.685C5.38132 6.23048 5.91374 5.86946 6.50116 5.62301C7.08858 5.37656 7.71921 5.24963 8.35624 5.24963C8.99326 5.24963 9.6239 5.37656 10.2113 5.62301C10.7987 5.86946 11.3312 6.23048 11.7775 6.685L14 8.96L16.2137 6.7025C16.6585 6.24224 17.1914 5.87638 17.7808 5.62681C18.3701 5.37724 19.0037 5.24908 19.6437 5.25ZM19.6437 3.5C18.7737 3.49926 17.9122 3.67225 17.1098 4.00882C16.3075 4.34538 15.5804 4.83875 14.9712 5.46L14 6.44L13.0287 5.46C12.4188 4.83987 11.6916 4.34736 10.8894 4.01117C10.0871 3.67498 9.22604 3.50184 8.35624 3.50184C7.48643 3.50184 6.62533 3.67498 5.82312 4.01117C5.02092 4.34736 4.29366 4.83987 3.68374 5.46C2.44288 6.72317 1.74762 8.42307 1.74762 10.1938C1.74762 11.9644 2.44288 13.6643 3.68374 14.9275L14 25.375L24.3162 14.9275C25.5571 13.6643 26.2524 11.9644 26.2524 10.1938C26.2524 8.42307 25.5571 6.72317 24.3162 5.46C23.7065 4.83954 22.9793 4.34669 22.1771 4.01018C21.3749 3.67367 20.5137 3.50024 19.6437 3.5Z" fill="black"/>
</svg>
