<svg width="24" height="24" viewBox="0 0 24 24" fill="none" xmlns="http://www.w3.org/2000/svg">
<path d="M2.68125 20.0273L8.76797 13.9406C7.82344 12.7195 7.3125 11.2266 7.3125 9.65625C7.3125 7.77656 8.04609 6.01406 9.37266 4.68516C10.6992 3.35625 12.4664 2.625 14.3438 2.625C16.2211 2.625 17.9883 3.35859 19.3148 4.68516C20.6438 6.01172 21.375 7.77656 21.375 9.65625C21.375 11.5336 20.6414 13.3008 19.3148 14.6273C17.9883 15.9562 16.2234 16.6875 14.3438 16.6875C12.7734 16.6875 11.2828 16.1766 10.0617 15.2344L3.975 21.3187C3.95715 21.3366 3.93596 21.3508 3.91264 21.3604C3.88931 21.3701 3.86431 21.3751 3.83906 21.3751C3.81381 21.3751 3.78881 21.3701 3.76549 21.3604C3.74216 21.3508 3.72097 21.3366 3.70312 21.3187L2.68125 20.2992C2.66339 20.2814 2.64923 20.2602 2.63956 20.2369C2.62989 20.2135 2.62492 20.1885 2.62492 20.1633C2.62492 20.138 2.62989 20.113 2.63956 20.0897C2.64923 20.0664 2.66339 20.0452 2.68125 20.0273ZM10.6312 13.3688C11.625 14.3602 12.9422 14.9062 14.3438 14.9062C15.7453 14.9062 17.0625 14.3602 18.0562 13.3688C19.0477 12.375 19.5938 11.0578 19.5938 9.65625C19.5938 8.25469 19.0477 6.93516 18.0562 5.94375C17.0625 4.95234 15.7453 4.40625 14.3438 4.40625C12.9422 4.40625 11.6227 4.95 10.6312 5.94375C9.63984 6.9375 9.09375 8.25469 9.09375 9.65625C9.09375 11.0578 9.63984 12.3773 10.6312 13.3688Z" fill="black"/>
</svg>
