<svg xmlns="http://www.w3.org/2000/svg" xmlns:xlink="http://www.w3.org/1999/xlink" width="773" height="242" viewBox="0 0 773 242">
  <defs>
    <style>
      .cls-1 {
        stroke: #ec5252;
        stroke-width: 3px;
        fill-rule: evenodd;
        fill: url(#linear-gradient);
      }
    </style>
    <linearGradient id="linear-gradient" x1="459.95" y1="395" x2="640.05" y2="634" gradientUnits="userSpaceOnUse">
      <stop offset="0" stop-color="#fff8f8"/>
      <stop offset="1" stop-color="#fff"/>
    </linearGradient>
  </defs>
  <path id="tippytop.svg" class="cls-1" d="M434.238,624.531c-18.962-11.839-32.693-34.5-41.765-68.918a117.941,117.941,0,0,1-109.619,74.71c-64.976,0-117.839-52.777-117.839-117.647,0-64.886,52.863-117.671,117.839-117.671,64.942,0,117.777,52.785,117.777,117.671a117.568,117.568,0,0,1-2.362,23.483c8.127,40.972,22.008,67.861,41.278,79.892,14.121,8.819,31.738,10.239,53.858,4.342l2.58,9.664C471.039,636.706,450.843,634.9,434.238,624.531ZM282.854,405.005c-59.456,0-107.826,48.3-107.826,107.671S223.4,620.323,282.854,620.323c59.421,0,107.764-48.291,107.764-107.647A107.839,107.839,0,0,0,282.854,405.005Zm29.73,106.9a32.881,32.881,0,1,1,32.881,32.841A32.855,32.855,0,0,1,312.584,511.905Zm-30.5-28.936a32.841,32.841,0,1,1,32.88-32.828A32.855,32.855,0,0,1,282.082,482.969Zm-61.851,63.307a32.841,32.841,0,1,1,32.88-32.829A32.852,32.852,0,0,1,220.231,546.276Zm62.623-11.708a21.892,21.892,0,1,1,21.918-21.892A21.936,21.936,0,0,1,282.854,534.568Zm0-33.783a11.892,11.892,0,1,0,11.906,11.891A11.917,11.917,0,0,0,282.854,500.785Zm0.772,41.586a32.835,32.835,0,1,1-32.881,32.84A32.854,32.854,0,0,1,283.626,542.371Zm589.889-57.949a61.44,61.44,0,0,0-17.246,2.5L830.8,424.976a6.42,6.42,0,0,0-5.934-3.969H794.92a6.395,6.395,0,1,0,0,12.789h25.64c0.653,1.593,3.205,7.793,6.794,16.521H719.666l-5.3-9.472,25.121-2.826a4.634,4.634,0,1,0,0-9.268H696.984a4.64,4.64,0,0,0-4.647,4.636c0,2.557-.863,9.967,7.119,9.133l1.091-.124,7.395,13.22L687.8,489.922a61.218,61.218,0,1,0,35.83,62.183h38.682v22.378h-8.022a3.2,3.2,0,1,0,0,6.393h11.23a3.2,3.2,0,0,0,3.206-3.195V551.322a0.451,0.451,0,0,0,.066-0.026c0.2-.11.369-0.257,0.553-0.382,0.133-.1.28-0.177,0.406-0.287a6.1,6.1,0,0,0,.878-0.882c0.025-.03.051-0.048,0.073-0.074l0.015-.018c0.008,0,.008-0.011.015-0.015l64.13-81.052c3.024,7.349,6.284,15.27,9.53,23.167A61.487,61.487,0,1,0,873.515,484.422ZM715.193,468.586l39.552,70.733c-7.358,0-18.873,0-31.114,0a61.183,61.183,0,0,0-24.773-42.906C705.4,485.268,711.542,474.81,715.193,468.586Zm-4.526,70.729c-15.49,0-30.15,0-36.992,0,3.463-5.9,10.865-18.5,18.677-31.808A48.415,48.415,0,0,1,710.667,539.315Zm-48.178,54.891a48.5,48.5,0,1,1,18.817-93.215l-24.353,41.486a6.393,6.393,0,0,0,5.536,9.624l48.178,0A48.637,48.637,0,0,1,662.489,594.206Zm106.238-62.688V516.93h8.018a3.2,3.2,0,1,0,0-6.4H765.521a3.2,3.2,0,0,0-3.208,3.2v12.845l-35.491-63.472h96.039Zm104.788,62.688a48.431,48.431,0,0,1-24.21-90.5c9.781,23.778,18.272,44.428,18.272,44.428a6.413,6.413,0,0,0,11.875-4.849l-18.274-44.43A48.5,48.5,0,1,1,873.515,594.206Z" transform="translate(-163.5 -393.5)"/>
</svg>
